Coordinates
version=1
nRows=4
nColumns=63
inDegrees=yes

Units are S.I. units (second, meters, Newtons, ...)
If the header above contains a line with 'inDegrees', this indicates whether rotational values are in degrees (yes) or radians (no).

endheader
time	pelvis_tilt	pelvis_list	pelvis_rotation	pelvis_tx	pelvis_ty	pelvis_tz	hip_flexion_r	hip_adduction_r	hip_rotation_r	knee_angle_r	knee_angle_r_beta	ankle_angle_r	subtalar_angle_r	mtp_angle_r	hip_flexion_l	hip_adduction_l	hip_rotation_l	knee_angle_l	knee_angle_l_beta	ankle_angle_l	subtalar_angle_l	mtp_angle_l	L5_S1_Flex_Ext	L5_S1_Lat_Bending	L5_S1_axial_rotation	L4_L5_Flex_Ext	L4_L5_Lat_Bending	L4_L5_axial_rotation	L3_L4_Flex_Ext	L3_L4_Lat_Bending	L3_L4_axial_rotation	L2_L3_Flex_Ext	L2_L3_Lat_Bending	L2_L3_axial_rotation	L1_L2_Flex_Ext	L1_L2_Lat_Bending	L1_L2_axial_rotation	L1_T12_Flex_Ext	L1_T12_Lat_Bending	L1_T12_axial_rotation	Abs_r3	Abs_r2	Abs_r1	Abs_t1	Abs_t2	neck_flexion	neck_bending	neck_rotation	arm_flex_r	arm_add_r	arm_rot_r	elbow_flex_r	pro_sup_r	wrist_flex_r	wrist_dev_r	arm_flex_l	arm_add_l	arm_rot_l	elbow_flex_l	pro_sup_l	wrist_flex_l	wrist_dev_l
      1.00000000	      3.08085186	     -5.64422022	     84.99156677	      0.16344494	      0.77069415	      0.73010649	      2.38415909	      0.26924126	     24.53010269	      1.77445624	      0.03097010	     25.91894924	    -15.41144590	      0.00000000	      2.91348501	     -2.92429168	    -10.90026835	      5.50074964	      0.09600619	     31.54902557	      9.18483512	      0.00000000	      0.41975682	      0.26874446	      2.35356950	      0.77953038	      0.35743014	      2.50066760	      0.68961847	      0.65342529	      2.50066760	      0.47974007	      0.65342529	      2.05937331	      0.38978618	      0.54802371	      1.91227522	      0.23984905	      0.41628517	      1.76517713	      2.99828097	      3.04009112	     13.08984750	      0.00000000	      0.00000000	     28.31664398	    -13.76861245	    -21.29418788	      5.55137708	    -11.91815120	     53.10438744	     48.60983738	     10.30672987	    -13.26330527	     19.12827587	     17.36360003	    -12.07533908	     71.25681007	     47.44985856	     70.05892789	     13.40896117	     14.55638901
      1.02439024	      3.08113203	     -5.63558050	     85.48960785	      0.16305364	      0.77092286	      0.72882875	      2.26775255	      0.24241525	     24.19021625	      1.64721966	      0.02874941	     26.11201850	    -15.22877660	      0.00000000	      2.93620425	     -2.93533020	    -10.78030005	      5.46575730	      0.09539546	     31.67732385	      9.64646928	      0.00000000	      0.43861022	      0.23797686	      2.39588090	      0.81454304	      0.31650922	      2.54562345	      0.72059273	      0.57861693	      2.54562345	      0.50128762	      0.57861693	      2.09639578	      0.40729345	      0.48528240	      1.94665323	      0.25062188	      0.36862615	      1.79691067	      3.13294895	      2.69204179	     13.32517079	      0.00000000	      0.00000000	     28.31526238	    -15.43952274	    -24.14619749	      5.54184162	    -11.79730427	     51.83867384	     48.70221596	      7.04157089	    -15.59518180	     22.30759731	     17.66733926	    -11.68660664	     70.80354419	     47.20482344	     70.31235765	     15.15592933	     16.41378135
      1.04878049	      3.12830120	     -5.48206113	     85.86689135	      0.16274953	      0.77114613	      0.72734004	      2.00342849	      0.26116231	     23.92889753	      1.55840486	      0.02719930	     26.33335914	    -15.00017672	      0.00000000	      2.74806577	     -2.97276952	    -10.50938268	      5.38831239	      0.09404379	     31.75248136	      9.81147700	      0.00000000	      0.44230390	      0.21440667	      2.41868968	      0.82140257	      0.28516087	      2.56985778	      0.72666107	      0.52130837	      2.56985778	      0.50550912	      0.52130837	      2.11635347	      0.41072340	      0.43721808	      1.96518536	      0.25273245	      0.33211593	      1.81401726	      3.15933251	      2.42541111	     13.45202639	      0.00000000	      0.00000000	     28.31591802	    -16.93560628	    -26.65899103	      5.83410389	    -11.75094159	     51.48551175	     48.68759562	      5.43060306	    -17.67284383	     24.94167633	     17.95587210	    -11.41738164	     70.41485099	     47.05592786	     70.69418636	     16.43508695	     17.59771273
      1.07317073	      3.20661438	     -5.25958511	     86.23012599	      0.16241190	      0.77123977	      0.72555470	      1.63249540	      0.31052987	     23.65517614	      1.49595455	      0.02610933	     26.41084340	    -14.86408837	      0.00000000	      2.30407421	     -3.00088625	     -9.96807788	      5.00426321	      0.08734087	     31.58055077	      9.88681127	      0.00000000	      0.45082073	      0.19660181	      2.43497779	      0.83721917	      0.26148040	      2.58716390	      0.74065337	      0.47801763	      2.58716390	      0.51524301	      0.47801763	      2.13060557	      0.41863213	      0.40091040	      1.97841946	      0.25759896	      0.30453620	      1.82623334	      3.22016737	      2.22399895	     13.54261599	      0.00000000	      0.00000000	     28.30661796	    -18.17324617	    -28.54433154	      6.05978275	    -11.83037750	     51.59698555	     48.70463723	      4.94727986	    -18.58874295	     26.65326516	     18.17903090	    -11.15197907	     70.18558255	     46.90954083	     71.05642291	     17.15556446	     18.39645657
